<?xml version="1.0" encoding="utf-8"?>
<!-- Generator: Adobe Illustrator 16.0.0, SVG Export Plug-In . SVG Version: 6.00 Build 0)  -->
<!DOCTYPE svg PUBLIC "-//W3C//DTD SVG 1.1//EN" "http://www.w3.org/Graphics/SVG/1.1/DTD/svg11.dtd">
<svg version="1.1" id="Layer_1" xmlns="http://www.w3.org/2000/svg" xmlns:xlink="http://www.w3.org/1999/xlink" x="0px" y="0px"
	 width="500px" height="500px" viewBox="0 0 500 500" enable-background="new 0 0 500 500" xml:space="preserve">
<g>
	<g>
		<circle fill="#FFFFFF" cx="250.687" cy="251.536" r="92.028"/>
		<path fill="#FFFFFF" d="M494.669,249.997c0-22.526-17.377-40.951-39.455-42.704c-17.433-80.657-81.455-144.177-162.412-160.781
			C291.9,23.63,273.104,5.334,250.006,5.334c-23.224,0-42.079,18.462-42.82,41.497C126.908,63.871,63.524,127.059,46.165,207.22
			C23.443,208.292,5.331,227,5.331,249.997c0,22.77,17.757,41.324,40.16,42.741c16.378,81.694,80.461,146.341,161.86,163.552
			c2.256,21.569,20.485,38.376,42.649,38.376c22.041,0,40.197-16.646,42.594-38.058c82.098-16.751,146.837-81.729,163.29-163.938
			C477.646,290.599,494.669,272.296,494.669,249.997z M292.17,444.134c-3.614-20.029-21.102-35.23-42.164-35.23
			c-20.969,0-38.388,15.047-42.121,34.919c-75.196-16.721-134.352-76.501-150.08-152.065c19.062-4.357,33.301-21.372,33.301-41.76
			c0-20.142-13.908-36.991-32.627-41.595c16.69-74.399,75.545-133.008,150.085-149.313c4.824,18.4,21.521,31.996,41.441,31.996
			c20.02,0,36.795-13.742,41.509-32.296C366.56,74.67,425.935,133.39,442.82,208.065c-19.378,4.12-33.92,21.318-33.92,41.926
			c0,20.846,14.888,38.198,34.606,42.059C427.582,367.915,367.887,427.838,292.17,444.134z"/>
	</g>
</g>
</svg>
