<?xml version="1.0" encoding="utf-8"?>
<!-- Generator: Adobe Illustrator 16.0.0, SVG Export Plug-In . SVG Version: 6.00 Build 0)  -->
<!DOCTYPE svg PUBLIC "-//W3C//DTD SVG 1.1//EN" "http://www.w3.org/Graphics/SVG/1.1/DTD/svg11.dtd">
<svg version="1.1"
	 id="Layer_1" xmlns:dc="http://purl.org/dc/elements/1.1/" xmlns:cc="http://creativecommons.org/ns#" xmlns:sodipodi="http://sodipodi.sourceforge.net/DTD/sodipodi-0.dtd" xmlns:inkscape="http://www.inkscape.org/namespaces/inkscape" xmlns:rdf="http://www.w3.org/1999/02/22-rdf-syntax-ns#" xmlns:svg="http://www.w3.org/2000/svg"
	 xmlns="http://www.w3.org/2000/svg" xmlns:xlink="http://www.w3.org/1999/xlink" x="0px" y="0px" width="500px" height="500px"
	 viewBox="0 0 500 500" enable-background="new 0 0 500 500" xml:space="preserve">
<g transform="translate(0,4)">
	<g transform="translate(263.34687,-2093.5564)">
		<path fill="#FFFFFF" d="M143.972,2099.463c-21.591,7.551-32.968,31.171-25.418,52.76c2.881,8.237,8.144,15.302,14.702,20.082
			l-76.32,209.848c-5.012-0.181-10.176,0.269-15.193,2.024c-4.156,1.453-7.537,4.029-10.874,6.544l-86.072-53.252
			c5.102-12.601,6.535-26.782,1.694-40.623c-10.57-30.224-43.639-46.156-73.863-35.586s-46.156,43.639-35.585,73.862
			c5.235,14.97,15.766,26.17,28.963,32.643l-43.736,132.1c-6.591-1.072-13.53-0.751-20.276,1.608
			c-21.587,7.549-32.968,31.171-25.42,52.755c7.551,21.59,31.172,32.969,52.76,25.419c21.588-7.55,32.969-31.173,25.419-52.76
			c-3.255-9.308-9.557-16.542-17.339-21.354l44.542-132.929c9.33,1.576,19.386,1.446,28.948-1.897
			c10.715-3.747,19.174-10.604,25.753-18.878l83.093,51.002c-5.881,10.105-7.593,22.204-3.431,34.105
			c7.551,21.589,31.171,32.967,52.76,25.416c21.589-7.549,32.965-31.172,25.416-52.756c-3.774-10.796-11.259-18.834-20.805-23.433
			l75.047-207.208c7.228,1.577,15.08,1.307,22.57-1.312c21.592-7.551,32.97-31.172,25.419-52.76
			C189.182,2103.292,165.561,2091.913,143.972,2099.463z"/>
	</g>
</g>
</svg>
