<?xml version="1.0" encoding="utf-8"?>
<!-- Generator: Adobe Illustrator 16.0.0, SVG Export Plug-In . SVG Version: 6.00 Build 0)  -->
<!DOCTYPE svg PUBLIC "-//W3C//DTD SVG 1.1//EN" "http://www.w3.org/Graphics/SVG/1.1/DTD/svg11.dtd">
<svg version="1.1" id="Layer_1" xmlns="http://www.w3.org/2000/svg" xmlns:xlink="http://www.w3.org/1999/xlink" x="0px" y="0px"
	 width="500px" height="500px" viewBox="0 0 500 500" enable-background="new 0 0 500 500" xml:space="preserve">
<path fill="#FFFFFF" d="M218,415.333v21.334H31.333C19.6,436.667,10,427.066,10,415.333V84.667c0-11.733,9.6-21.333,21.333-21.333
	H218v21.333H31.333v330.667H218z M468.667,63.333H282v21.333h186.667v330.667H282v21.334h186.667
	c11.732,0,21.333-9.601,21.333-21.334V84.667C490,72.934,480.399,63.333,468.667,63.333z M250,183.333
	c-36.8,0-66.667,29.866-66.667,66.667c0,36.8,29.866,66.667,66.667,66.667c36.8,0,66.667-29.867,66.667-66.667
	C316.667,213.2,286.8,183.333,250,183.333z"/>
</svg>
